inDegrees=no
num_controls=7
num_derivatives=13
num_iterations=121
num_multipliers=7
num_parameters=0
num_slacks=7
num_states=26
objective=0.545135
objective_accelerations=0.042052
objective_balance=0.003890
objective_effort=0.041065
objective_height=0.448683
objective_ligament=0.009446
solver_duration=1286.974319
status=Solve_Succeeded
success=true
DataType=double
version=3
OpenSimVersion=4.5
endheader
time	/jointset/ground_pelvis/pelvis_tilt/value	/jointset/ground_pelvis/pelvis_tx/value	/jointset/ground_pelvis/pelvis_ty/value	/jointset/hip_r/hip_flexion_r/value	/jointset/hip_r/hip_adduction_r/value	/jointset/hip_r/hip_rotation_r/value	/jointset/back/lumbar_extension/value	/jointset/patellofemoral_r/patellar_flexion_r/value	/jointset/knee_r/knee_flexion_r/value	/jointset/knee_r/knee_adduction_r/value	/jointset/knee_r/knee_rotation_r/value	/jointset/ankle_r/ankle_angle_r/value	/jointset/subtalar_r/subtalar_angle_r/value	/jointset/ground_pelvis/pelvis_tilt/speed	/jointset/ground_pelvis/pelvis_tx/speed	/jointset/ground_pelvis/pelvis_ty/speed	/jointset/hip_r/hip_flexion_r/speed	/jointset/hip_r/hip_adduction_r/speed	/jointset/hip_r/hip_rotation_r/speed	/jointset/back/lumbar_extension/speed	/jointset/patellofemoral_r/patellar_flexion_r/speed	/jointset/knee_r/knee_flexion_r/speed	/jointset/knee_r/knee_adduction_r/speed	/jointset/knee_r/knee_rotation_r/speed	/jointset/ankle_r/ankle_angle_r/speed	/jointset/subtalar_r/subtalar_angle_r/speed	/forceset/tau_hip_flexion_r	/forceset/tau_hip_adduction_r	/forceset/tau_hip_rotation_r	/forceset/tau_knee_flexion_r	/forceset/tau_ankle_angle_r	/forceset/tau_subtalar_angle_r	/forceset/tau_lumbar_extension	lambda_cid13_p0	lambda_cid14_p0	lambda_cid14_p1	lambda_cid14_p2	lambda_cid14_p3	lambda_cid14_p4	lambda_cid14_p5	/jointset/ground_pelvis/pelvis_tilt/accel	/jointset/ground_pelvis/pelvis_tx/accel	/jointset/ground_pelvis/pelvis_ty/accel	/jointset/hip_r/hip_flexion_r/accel	/jointset/hip_r/hip_adduction_r/accel	/jointset/hip_r/hip_rotation_r/accel	/jointset/back/lumbar_extension/accel	/jointset/patellofemoral_r/patellar_flexion_r/accel	/jointset/knee_r/knee_flexion_r/accel	/jointset/knee_r/knee_adduction_r/accel	/jointset/knee_r/knee_rotation_r/accel	/jointset/ankle_r/ankle_angle_r/accel	/jointset/subtalar_r/subtalar_angle_r/accel	gamma_cid13_p0	gamma_cid14_p0	gamma_cid14_p1	gamma_cid14_p2	gamma_cid14_p3	gamma_cid14_p4	gamma_cid14_p5
1.5	-0.234145314365946	0.002685319978994171	0.8474922104201618	0.8843498169912155	-0.2255561268653704	-0.1420179770960382	-0.3068499995817855	0.6527742134280382	0.6527742134280399	0.03734566960772382	0.1745239560639049	0.1697164797601173	0.03640234524711936	0.5743539186793777	0.2435735149009595	0.4064955998274517	-2.011718111920317	0.0111210391648057	-0.2910069966730497	0.6956597033916724	-1.742139894595618	-1.742139894595615	0.2772089480513306	5.181631638926465e-06	-0.3852423744023928	-0.08468298950464193	-0.1486363084789216	-0.02062346654547379	0.007780326996961379	-0.2927558918772047	0.1099563333980353	-0.009981629413856339	0.1795130655992347	-33.94412466426475	-6.387617497238594	-1.128135543719182	-4.300722368472453	-2.807485153294651	-659.2547829744411	57.83370907529575	0.2900942497626126	0.5584790748893433	-0.4405474387775051	-1.230080159719715	0.009335202076546938	-0.5210884523080762	1.725021791570377	-1.138556481103181	-1.138556481103274	0.4458505796964781	0.002630511969269356	-0.3195304240870352	-0.03733779842026388	1.297483946130378e-07	1.872351524842327e-07	-4.325400568517083e-07	1.259137302009215e-06	-6.094812571461798e-08	2.561210748188961e-07	-4.452313469391371e-07
1.51	-0.2283877856813435	0.005148691859826598	0.8515342712614362	0.8641733141556255	-0.2254453839433684	-0.1449529366117776	-0.2998084320541045	0.6352982055207608	0.6352982055207672	0.0401423086005098	0.1745242173774873	0.1658483600064704	0.03555257859342956	0.5770695559146074	0.2490672546782657	0.4018283027337718	-2.023303491758038	0.01102681329641769	-0.2959622843736445	0.7125532683270529	-1.752810987795133	-1.752810987795131	0.2821056626445897	3.691863335394083e-05	-0.388321762452323	-0.08525474120259333	-0.1406480120368583	-0.02221440844935355	0.00716235737851241	-0.2899493743193431	0.1118703129907827	-0.01056752860905377	0.1726123813328775	-34.8541492338681	-5.566056858059204	-1.141129893525453	-4.4101470435261	-3.007726792133583	-654.9515210259276	57.92979828599322	0.2499791805658458	0.5397683347745906	-0.4930037615815961	-1.080896193167191	-0.01876933936874647	-0.4791315823405281	1.65644377190817	-0.9938089094674262	-0.9938089094676417	0.5095960987172792	0.002174968554919764	-0.293162344878899	-0.06467742500904969	1.366127653651358e-07	1.943869869295228e-07	-4.79969872814238e-07	1.304627812097768e-06	-6.067304468689661e-08	2.749736972117752e-07	-4.93594600800847e-07
1.52	-0.2226055644803553	0.00766599051955677	0.8555270225483901	0.8438893316621855	-0.2253355768516642	-0.1479367255352045	-0.2926009448915921	0.6177230020474707	0.6177230020474802	0.04298751757914477	0.1745245419959427	0.1619512425024376	0.03469757770885495	0.5792924219563437	0.2543588706805083	0.3966336889633617	-2.033214043490513	0.01093387310513852	-0.3007728782104527	0.7288436303578841	-1.76197900779832	-1.76197900779832	0.2869229452209144	1.784260636119077e-05	-0.391041924479569	-0.08572983568160367	-0.132659715594792	-0.02380535035323303	0.006544387760055333	-0.2871428567614809	0.1137842925835301	-0.01115342780425059	0.1657116970665231	-35.732750756705	-4.752128120018646	-1.152125342215288	-4.52370090382609	-3.208369307884718	-650.7726728153315	58.10624180473012	0.1915400110639341	0.5180543198765918	-0.5460107741235674	-0.8951145386706116	0.009592337498321713	-0.4921496795507664	1.604381210660544	-0.8379418418377229	-0.8379418418377113	0.4299641763095683	-0.007532093772283264	-0.2476852195502451	-0.01800635463205249	1.456775206688575e-07	1.981906621887164e-07	-5.742248637837605e-07	1.326204815928205e-06	-5.358830592271275e-08	2.933265060727345e-07	-5.552212878326301e-07
1.53	-0.2168036103020495	0.01023513494901911	0.8594652421420941	0.8235146878875771	-0.2252267633071917	-0.1509682669007609	-0.2852338341104805	0.6000637144512331	0.6000637144512413	0.04588040614472405	0.1745247803014393	0.1580287280939746	0.03383823736297938	0.5810098448179093	0.2594295443650622	0.3909264316552497	-2.041417805780707	0.01082946592107716	-0.3055139378873379	0.7444531917589521	-1.769612547598006	-1.769612547598004	0.2916326676329632	2.335713373593906e-05	-0.3933959274953285	-0.08612001812299587	-0.1243811984822849	-0.02570174331188447	0.005944384121184949	-0.2847415345045014	0.1162375360014678	-0.01191742028038953	0.1585641697070166	-36.57532681786587	-3.779502208759418	-1.217917512043782	-4.622535262012587	-3.475250229739383	-646.6744819657781	58.25640269764669	0.1485777012394666	0.4954969452786213	-0.5955887896435978	-0.7384451311597409	-0.02025441791441143	-0.4616183328754031	1.520443489020861	-0.6861981083078585	-0.686198108307606	0.4881130521429748	0.003879479383321555	-0.219487862656911	-0.04676220729290901	1.570801845586793e-07	1.984369183126826e-07	-7.182316031982122e-07	1.322373719359395e-06	-3.926830581353756e-08	3.111482630560288e-07	-6.309403726076159e-07
1.54	-0.2109871350396201	0.01285377072583379	0.8633438880466192	0.8030669188786743	-0.225118953268871	-0.1540465257073098	-0.2777143877385198	0.5823360638451457	0.5823360638451498	0.04881971929012356	0.1745249310028851	0.1540846276513404	0.03297554758900986	0.5821966387809366	0.2642571401509732	0.3847189511275989	-2.04783909034954	0.01073317187477372	-0.3101163664089429	0.7593107485276562	-1.775651609768648	-1.775651609768644	0.2962078611846294	3.217967497301017e-07	-0.3953591313138125	-0.08639972130039238	-0.1161026813697748	-0.02759813627053522	0.005344380482290163	-0.2823402122475206	0.1186907794194059	-0.01268141275652706	0.1514166423475126	-37.37725762429901	-2.81494509766914	-1.281556804199905	-4.725786545302292	-3.740520089993905	-642.7076917565631	58.4919997062951	0.08541423135629569	0.4694387401480294	-0.6460554180313144	-0.5386189943984884	0.01121496504991015	-0.4644234484947143	1.453980284187781	-0.5190463160290882	-0.519046316029007	0.4030584042330657	-0.01324206664447312	-0.1695253800951414	0.004089498167083675	1.679144876613868e-07	1.982582439397009e-07	-8.549240808779816e-07	1.316994902932746e-06	-2.549426400548164e-08	3.277632180395641e-07	-7.021799660303801e-07
1.55	-0.2051614638683419	0.0155193752400203	0.8671580139871603	0.7825639531536372	-0.225012135708367	-0.157170371724983	-0.2700503770778363	0.5645560838963802	0.5645560838963849	0.05180408385155699	0.1745249841625873	0.1501228161133241	0.0321105297330436	0.5828462668572358	0.2688133885418469	0.3780277751186242	-2.052438794153609	0.0106295752885025	-0.3146242173998762	0.7733399533523019	-1.780062467142467	-1.780062467142448	0.3006422299544001	3.965419661601199e-06	-0.3969373355681895	-0.08658764060840045	-0.1077039848361881	-0.02970491323742903	0.00475583977707371	-0.28008280294018	0.1212462995879589	-0.01359389758621099	0.1441463864938409	-38.13391812637438	-1.83571360423417	-1.410296524571734	-4.815026375366825	-3.942071141075613	-638.8773970116936	58.66662481612173	0.04105675052886828	0.4411607575622272	-0.6923476824747509	-0.3733312954866493	-0.02118639447291423	-0.4394078353342705	1.354676043105499	-0.359855271609105	-0.3598552716069744	0.4601184456275613	0.006472057162966394	-0.1420703767362599	-0.02781408899528775	1.780939402919843e-07	1.975899757332794e-07	-9.831892569938781e-07	1.309832844061195e-06	-1.234926110958482e-08	3.429877272407686e-07	-7.682584063734109e-07
1.56	-0.1993320324853479	0.0182290308119166	0.8709028883695829	0.7620244533461445	-0.2249063619985275	-0.1603383846347538	-0.2622506172766056	0.5467404454091674	0.5467404454091711	0.05483209056714449	0.1745249346545985	0.1461472020470387	0.03124411639525516	0.5829486811240191	0.2730673516929324	0.3708686395038839	-2.055145906840703	0.01052440174194063	-0.3189497448284747	0.7864605766370484	-1.782783317458317	-1.782783317458284	0.3049362920153111	-2.021174126842922e-05	-0.3981196369676578	-0.08667881766483007	-0.0993052883026001	-0.03181169020432329	0.004167299071846483	-0.2778253936328386	0.1238018197565119	-0.01450638241589521	0.1368761306401705	-38.8407682105953	-0.8651148519188532	-1.536824361649048	-4.908872669917193	-4.141065409396314	-635.1886131960322	58.93036965422564	-0.02402853054686816	0.4089816921903667	-0.7396473391844116	-0.1601007710037004	0.01089957299178256	-0.4279587360277597	1.272263976207988	-0.181044904435181	-0.1810449044351984	0.374997062461156	-0.01880622341284978	-0.09034480911342387	0.02343794848276976	1.886898015321403e-07	1.961858932166861e-07	-1.119053760310865e-06	1.297367762931545e-06	1.730643379977864e-09	3.579885162649007e-07	-8.339796414637324e-07
1.57	-0.1935043334255683	0.02097964342824328	0.8745739061590917	0.741467413790809	-0.2248016998126258	-0.163549071680711	-0.254324389323525	0.5289061196282151	0.5289061196282173	0.05790225292001988	0.174524833561758	0.1421617345470958	0.03037722210067585	0.5824963303601112	0.2769971306064966	0.3632633860075581	-2.055930500446802	0.01040618105731676	-0.3231522042983658	0.7986142815350966	-1.78378438779123	-1.783784387791261	0.3090706904111327	-5.799089444413386e-06	-0.3989043868120009	-0.08668466946585567	-0.09081975188389323	-0.03412907676571413	0.003575172531513359	-0.2757983590815174	0.1266001528358196	-0.01560365366075305	0.1295385176819208	-39.49337888145366	0.1586590478653023	-1.738269943615143	-4.986233187182413	-4.324263658155383	-631.7416655502254	59.12231544087389	-0.07004065474636322	0.3762749977492809	-0.7816179763156409	0.0121116156938866	-0.02342816484837528	-0.4107898715114314	1.161313880021797	-0.01506169789288294	-0.01506169790238311	0.42870960084618	0.01095030479839205	-0.06209035963238166	-0.01035459815382547	1.998061735342446e-07	1.93862042812378e-07	-1.264417422629215e-06	1.27827390397927e-06	1.697917486162288e-08	3.727096550676925e-07	-8.992543699881674e-07
1.58	-0.187683998334514	0.02376781363506759	0.8781667406893454	0.7209124783536343	-0.2246982688887029	-0.1668006633851751	-0.24628174629478	0.5110706984239003	0.5110706984238984	0.06101296893139557	0.174524753654496	0.138170509491202	0.02951071771733457	0.581475887378857	0.2805788697924591	0.3552319876528708	-2.054725083208627	0.01027814934633714	-0.3271306765299222	0.8097435917698861	-1.783002402131082	-1.783002402131176	0.3130470237150955	-1.597462488569712e-05	-0.3992711481578495	-0.08660083541722544	-0.08233421546518567	-0.03644646332710459	0.002983045991162796	-0.2737713245301955	0.1293984859151274	-0.01670092490561007	0.1222009047236717	-40.08857194559835	1.173724270791535	-1.937356093768748	-5.068407347654444	-4.506152783535433	-628.4400006889013	59.4054118053608	-0.1376469740161037	0.3393737466700136	-0.8248763108567131	0.2379013978509406	0.008937367720635617	-0.383161288360797	1.067385043556251	0.1755662941769678	0.1755662941769568	0.3433840440893935	-0.02372386086590597	-0.006747109414543666	0.04137511841392606	2.105268813291956e-07	1.931508151586056e-07	-1.4042871400861e-06	1.263152975112634e-06	2.914563129282773e-08	3.950408426366948e-07	-9.625844954775907e-07
